<?xml version="1.0" standalone="no"?>
<!DOCTYPE svg PUBLIC "-//W3C//DTD SVG 20010904//EN"
 "http://www.w3.org/TR/2001/REC-SVG-20010904/DTD/svg10.dtd">
<svg version="1.0" xmlns="http://www.w3.org/2000/svg"
 width="512.000000pt" height="512.000000pt" viewBox="0 0 512.000000 512.000000"
 preserveAspectRatio="xMidYMid meet">

<g transform="translate(0.000000,512.000000) scale(0.100000,-0.100000)"
fill="#000000" stroke="none">
<path d="M1490 5104 c-14 -9 -118 -109 -231 -221 l-205 -204 -335 -125 c-184
-69 -343 -134 -354 -145 -20 -19 -20 -33 -20 -2190 l0 -2171 28 -24 28 -24
2159 0 2159 0 28 24 28 24 0 2171 c0 2157 0 2171 -20 2190 -11 11 -170 76
-354 145 l-335 125 -205 204 c-217 215 -242 237 -277 237 -12 0 -66 -30 -120
-66 -273 -183 -574 -274 -904 -274 -330 0 -631 91 -904 274 -104 70 -126 76
-166 50z m460 -645 c259 -199 469 -366 468 -370 -3 -6 -542 -488 -590 -527
-13 -11 -54 55 -313 509 l-298 521 119 119 c65 66 124 117 131 115 6 -3 224
-168 483 -367z m1834 252 l119 -119 -298 -521 c-259 -454 -300 -520 -313 -509
-77 62 -587 522 -587 530 0 9 942 738 954 738 4 0 60 -54 125 -119z m-1666
-45 c150 -37 262 -50 442 -50 234 0 414 30 620 103 45 16 76 23 69 16 -52 -48
-677 -519 -689 -519 -12 0 -637 471 -689 519 -7 7 24 0 69 -16 45 -16 125 -40
178 -53z m-723 -729 c176 -309 330 -572 342 -584 26 -27 69 -30 103 -6 23 16
519 453 598 527 l32 30 0 -1867 0 -1867 -980 0 -980 0 2 2062 3 2062 270 102
c149 57 275 103 280 103 6 0 154 -253 330 -562z m2950 455 l260 -98 3 -2062 2
-2062 -980 0 -980 0 0 1867 0 1867 33 -30 c78 -74 574 -511 597 -527 34 -24
77 -21 103 6 12 12 166 275 342 585 277 487 323 561 340 557 11 -3 137 -49
280 -103z"/>
<path d="M2013 2975 c-54 -23 -63 -105 -15 -141 28 -22 80 -17 107 11 65 65
-7 166 -92 130z"/>
<path d="M1998 2286 c-30 -23 -40 -63 -24 -101 33 -79 156 -53 156 32 0 65
-81 108 -132 69z"/>
<path d="M1994 1596 c-52 -44 -30 -126 36 -141 80 -18 134 82 75 140 -31 32
-75 32 -111 1z"/>
<path d="M2010 927 c-54 -27 -61 -99 -13 -137 55 -43 133 -6 133 62 -1 40 -17
64 -54 78 -34 13 -35 12 -66 -3z"/>
<path d="M3103 2706 l-28 -24 -3 -405 c-2 -252 1 -414 7 -430 8 -19 88 -78
290 -213 248 -165 284 -186 310 -181 49 10 570 363 582 394 6 16 9 179 7 430
l-3 405 -28 24 -28 24 -539 0 -539 0 -28 -24z m997 -463 l-1 -318 -214 -143
-215 -142 -215 142 -214 143 -1 318 0 317 430 0 430 0 0 -317z"/>
</g>
</svg>
