<?xml version="1.0" standalone="no"?>
<!DOCTYPE svg PUBLIC "-//W3C//DTD SVG 20010904//EN"
 "http://www.w3.org/TR/2001/REC-SVG-20010904/DTD/svg10.dtd">
<svg version="1.0" xmlns="http://www.w3.org/2000/svg"
 width="512.000000pt" height="512.000000pt" viewBox="0 0 512.000000 512.000000"
 preserveAspectRatio="xMidYMid meet">

<g transform="translate(0.000000,512.000000) scale(0.100000,-0.100000)"
fill="#000000" stroke="none">
<path d="M4705 4806 c-41 -19 -4381 -4363 -4395 -4399 -13 -35 7 -78 45 -95
20 -10 32 -9 58 2 18 8 189 171 382 365 l350 351 1623 0 c1800 0 1701 -4 1819
66 118 69 203 196 223 330 13 93 13 2174 0 2269 -13 93 -58 182 -131 259 -93
100 -193 136 -378 136 l-96 0 297 298 c163 163 302 310 307 325 14 36 -6 78
-44 95 -14 7 -27 12 -28 12 -1 -1 -15 -7 -32 -14z m-257 -891 c78 -23 142 -80
178 -156 l29 -64 0 -1135 0 -1135 -22 -47 c-30 -66 -95 -132 -156 -159 l-52
-24 -1560 -3 -1560 -2 485 485 c267 267 487 485 490 485 3 0 27 -58 54 -128
61 -159 77 -186 132 -218 54 -32 122 -36 177 -9 24 11 180 162 416 402 339
344 381 383 398 372 10 -6 151 -167 313 -356 382 -446 360 -423 399 -423 21 0
41 9 56 25 52 51 53 50 -316 479 -187 218 -352 404 -366 413 -41 27 -132 29
-180 5 -24 -13 -184 -168 -415 -401 -206 -210 -380 -381 -385 -381 -18 0 -28
21 -93 188 l-64 163 820 820 819 819 176 0 c128 0 189 -4 227 -15z"/>
<path d="M670 4079 c-25 -5 -77 -25 -117 -44 -129 -64 -221 -193 -243 -340
-13 -95 -13 -2175 0 -2270 17 -112 99 -252 162 -274 37 -13 74 3 94 40 17 33
6 70 -31 109 -13 14 -34 48 -47 75 l-23 50 0 1135 0 1135 26 56 c31 66 83 119
147 151 l47 23 1318 5 1319 5 19 24 c32 39 18 99 -28 120 -29 13 -2573 14
-2643 0z"/>
<path d="M1346 3354 c-100 -32 -186 -152 -186 -260 0 -101 72 -209 167 -250
49 -21 156 -22 205 -1 56 24 123 91 148 149 27 62 25 161 -5 222 -57 118 -203
180 -329 140z m167 -184 c40 -44 38 -107 -4 -149 -70 -71 -189 -24 -189 74 0
101 125 150 193 75z"/>
</g>
</svg>
